<svg xmlns="http://www.w3.org/2000/svg" width="16" height="16"><style>@media not (prefers-reduced-motion){#circle-arrows{animation:loadingRotate 1.8s linear infinite;transform-origin:50% 50%}#hourglass{display:none}}@media (prefers-reduced-motion){#circle-arrows{display:none}}</style><path id="circle-arrows" d="M9 5.528c0 .42.508.63.804.333l2.528-2.528a.47.47 0 0 0 0-.666L9.805.14A.471.471 0 0 0 9 .472v1.866A5.756 5.756 0 0 0 2.25 8c0 .942.232 1.83.635 2.615l1.143-1.143A4.208 4.208 0 0 1 3.75 8 4.254 4.254 0 0 1 8 3.75c.345 0 .68.042 1 .122v1.656zm-2 4.944v1.656c.32.08.655.122 1 .122A4.254 4.254 0 0 0 12.25 8c0-.52-.107-1.013-.279-1.474l1.143-1.143c.404.786.636 1.674.636 2.617A5.756 5.756 0 0 1 7 13.662v1.866a.47.47 0 0 1-.804.333l-2.528-2.528a.47.47 0 0 1 0-.666l2.528-2.528a.47.47 0 0 1 .804.333z"/><g id="hourglass"><path d="M13 1a1 1 0 0 1 0 2h-.015c.01.165.015.332.015.5 0 1.747-2.012 2.51-2.012 4.502 0 1.99 2.012 2.752 2.012 4.498 0 .169-.005.336-.015.501L13 13a1 1 0 0 1 0 2H3a1 1 0 0 1 0-2l.015.001A8.56 8.56 0 0 1 3 12.5c0-1.746 1.988-2.507 2-4.498C5.012 6.01 3 5.247 3 3.5c0-.168.005-.335.015-.5H3a1 1 0 1 1 0-2h10Zm-2.013 2H5.012l-.009.248L5 3.5c0 1.861 1.992 2.518 1.992 4.502S5 10.639 5 12.5l.003.251.01.249.589-.001.44-.703C7.025 10.766 7.677 10 8 10c.37 0 1.17 1 2.398 2.999h.59c.008-.164.012-.33.012-.499 0-1.86-2.013-2.485-2.013-4.498C8.987 5.989 11 5.362 11 3.5l-.003-.252-.01-.248Z"/><path d="M6 4h4C8.952 6 8.285 7 8 7c-.285 0-.952-1-2-3Z"/></g></svg>